# xmcd
#
# Track frame offsets:
#	150
#	15789
#	33165
#	59482
#	74695
#	93769
#	114243
#	130835
#	157178
#	175209
#	193714
#	213966
#	232958
#	247346
#	269506
#	285172
#	300818
#	319311
#
# Disc length: 4503 seconds
#
# Revision: 1
# Processed by: cddbd v1.5.1PL0 Copyright (c) Steve Scherf et al.
# Submitted via: EasyCDDAExtractor 5.1.0
#
DISCID=f3119512
DTITLE=barry white - the ultimate collection
DYEAR=1999
DGENRE=Blues
TTITLE0=you're the first , the last , my everything
TTITLE1=can't get enough of your love babe
TTITLE2=let the music play
TTITLE3=don't make me wait too long
TTITLE4=i'll do for you anything you want me to
TTITLE5=sho' you right
TTITLE6=what am i gonna do with you
TTITLE7=come on
TTITLE8=i'm gonna love you just a little more babe
TTITLE9=never , never gonna give you up
TTITLE10=baby we better try and get it together
TTITLE11=just the way you are
TTITLE12=i'm qualified to satisfy you
TTITLE13=dark and lovely ( you over there ) " radio edit "
TTITLE14=you see the trouble with me
TTITLE15=it's ecstasy when you lay down next to me
TTITLE16=the right night
TTITLE17=loves theme
EXTD=
EXTT0=
EXTT1=
EXTT2=
EXTT3=
EXTT4=
EXTT5=
EXTT6=
EXTT7=
EXTT8=
EXTT9=
EXTT10=
EXTT11=
EXTT12=
EXTT13=
EXTT14=
EXTT15=
EXTT16=
EXTT17=
PLAYORDER=
